<svg xmlns="http://www.w3.org/2000/svg" width="64" height="64" viewBox="0 0 64 64"><g fill="#FFF"><path d="M25.586 53.353c6.932-.27 13.47-2.402 16.455-9.148 2.343-5.292 1.758-11.767-2.662-15.31-.862-.69-1.553-1.14-1.43-1.228.084-.06.147-.128.18-.203.902-2.04 9.715-19.41 1.407-18.852-2.907.195-4.58 3.836-5.77 6.025-.927 1.708-1.765 3.477-2.536 5.273-.437 1.015-1.157 1.06-1.647.092-.296-.583-.597-1.164-.903-1.742-1.68-3.17-3.685-7.5-6.906-9.376-1.827-1.063-3.45.935-3.643 2.547-.38 3.192 2.33 6.91 3.612 9.65.71 1.514 1.405 3.033 2.09 4.557.455 1.007.152 2.708.65 3.694.785 1.554 3.482 3.117 5.628 4.172.99.487 1.01 1.276.238 2.065-.538.55-.983 1.175-1.346 1.854-.522.975-.89.957-1.193-.106-.916-3.2-2.804-6.652-4.037-7.916-1.472-1.51-3.03-1.793-4.945-.823-1.69.856-2.67 2.332-3 4.026-.21 1.086-1.002 2.21-1.858 2.907-1.75 1.428-2.69 4.064-2.412 6.49.845 7.384 6.822 11.638 14.028 11.356zm7.43-33.467l.03-.025c.365-.374.61-.78.545-.91-.028-.06-.086-.08-.15-.078 1.84-4.355 4.433-9.758 5.78-9.226 4.59 1.812.43 11-1.88 15.77-.482.994-1.7 1.445-2.758 1.127-.015-.004-.03-.01-.045-.013.172-.026.322-.08.41-.162.18-.167-.172-.357-.785-.303-.234.02-.424.068-.585.117-.747-.336-1.394-.798-1.605-1.24.127-.075.265-.174.412-.312.394-.37.654-.795.582-.95-.072-.158-.455.01-.846.38-.112.107-.208.216-.293.324-.082-.678.038-1.628.345-2.408.242-.61.53-1.326.845-2.09zM20.772 10.14c.03.02.054.044.08.065-.312.138-.554.413-.706.708.165-.558.49-.875.627-.774zm3.998 12.815c.15-.05.305-.135.458-.286.413-.41.615-1.03.452-1.39s-.628-.31-1.035.11c-.152.156-.264.343-.35.53-.17-.364-.335-.73-.505-1.096.12-.118.253-.254.406-.41.405-.418.728-.767.72-.78-.005-.015-.34.312-.744.73-.152.156-.285.295-.4.42-.032-.067-.06-.133-.092-.198.132-.09.276-.203.43-.358.406-.412.606-1.024.442-1.367-.163-.342-.63-.292-1.04.112-.153.15-.272.308-.372.46-.376-.8-.757-1.597-1.14-2.394.114.11.502-.103.913-.515.435-.436.723-.92.646-1.085-.077-.164-.497.063-.937.504-.415.415-.683.858-.645 1.042-.214-.447-.423-.897-.638-1.343-.17-.348-.35-.75-.53-1.17.186.085.544-.076.91-.44.452-.454.732-1.032.64-1.296-.093-.264-.536-.113-1 .34-.38.373-.634.82-.662 1.12-.305-.756-.57-1.572-.64-2.37v-.012c.165.18.538.077.932-.306.22-.214.36-.537.4-.818.443.43.84.915 1.224 1.394 2.45 3.066 4.38 6.685 6.086 10.336.468 1 .828 1.85.844 1.885.015.036.186.37.36.76.173.392-.582.644-1.668.79-.474.063-.965.004-1.41-.16.364-.427.594-.85.52-1.01-.085-.188-.492-.016-.91.384-.094.09-.18.185-.256.28-.287-.215-.528-.486-.68-.823-.242-.522-.488-1.044-.728-1.57zm2.855 21.448c.015.494.047.98.097 1.456.08.773 2.02.32 1.932-.52-.22-2.134-.163-4.748.69-6.897.225-.113.512-.327.81-.626.55-.548.957-1.106.91-1.245-.032-.1-.06-.185-.084-.25l-.026-.076c-.013-.036-.31.197-.688.532.57-.774 1.312-1.412 2.262-1.848-.01.025-.037.064-.032.076.04.11.27-.02.547-.258.043-.036.106-.09.162-.14.05-.036.1-.08.148-.127.306-.267.71-.63 1.03-.958.446-.457.742-.856.66-.89-.084-.035-.704.44-1.385 1.057-.05.044-.09.085-.137.13-.037-.04-.086-.075-.154-.105-.7-.305-3.03-1.166-5.014-2.27-.043-.093-.16-.29-.313-.508-.208-.292-.486-.43-.602-.322-.074.07-.032.2.08.336-.517-.327-.98-.67-1.354-1.024.06-.03.117-.055.173-.107.16-.15.243-.317.188-.373-.033-.034-.066-.068-.103-.1l-.053-.038c-.03-.02-.178.085-.332.24-.05.048-.07.1-.1.15l-.01-.01c-.75-.81-.424-1.862-.284-1.995.14-.132.955-.726 2.06-.703.084 0 .17.005.257.01 1.103.055 2.087.33 2.24.356.152.025.913.147 1.687.352.648.17 1.155.32 1.398.385 10.04 2.607 8.463 16.718 1.352 21.634-2.16 1.492-4.702 2.32-7.28 2.542.114-.03.057-.076-.196-.123-.36-.068-.72-.063-.81.026-.077.08-.09.136-.05.15-1.317.03-2.63-.1-3.894-.38.563.043 1.08-.067 1.264-.26.237-.254.097-.6-.3-.802-.398-.202-.88-.444-1.09-.52-.21-.076-.67.137-1.034.48-.293.28-.16.65.287.883-2.884-.812-5.44-2.43-7.09-4.773.144-.09.308-.216.476-.387.39-.398.648-.814.576-.933-.07-.12-.457.09-.863.466-.18.166-.323.337-.428.492-.334-.52-.625-1.072-.867-1.657.192-.013.425-.118.653-.323.426-.383.662-.968.552-1.313-.11-.346-.54-.295-.982.118-.23.214-.408.474-.514.72-.416-1.293-.612-2.724-.515-4.295.005-.1.02-.2.03-.3.122.036.302-.032.507-.224l.712-.67.36-.37c.2-.206.52-1.3 1.198-2.172.054-.07.115-.13.172-.195.526-.063 1.102.02 1.718.304 1.703.782 3.928 4.346 4.787 5.994.077.15.14.286.19.415.092.234.086.488.1.564s-.063 1.32-1.163 1.225c-.807-.07-1.808-.574-2.388-1.333-.702-.917-1.293-1.97-1.81-3-.38-.757-2.273-.164-1.932.518 1.377 2.746 4.075 7.774 7.696 5.37.432-.287.76-.614.996-.972.427-.646 1.09-1.2 1.802-1.384.712-.185 1.093-.017 1.117.79zm-9.836-11.876c.377-2.29 1.72-4.502 3.923-2.638 2.158 1.826 3.25 4.796 4.14 7.382.202.582.838 2.473.813 3.822-.113.044-.25.13-.394.264-.247.228-.425.453-.47.573-.48-.23-1.037-.802-1.308-1.35-.506-1.026-1.237-2.034-2.035-2.923.22-.004.473-.1.7-.31.396-.362.522-.864.274-1.11-.248-.248-.753-.165-1.116.173-.23.214-.345.482-.353.722-1.107-1.13-2.283-2-3.153-2.327-.153-.058-.303-.1-.452-.142.322-.163.59-.305.725-.446.36-.373.613-.683.56-.695-.05-.01-.122-.27-.127-.58-.004-.313-.622.067-1.405.846l-.24.24c-.118-.388-.176-.92-.08-1.5zm-2.012 3.584l-1.616 1.61c-.03.03-.06.06-.087.09.392-.774.977-1.39 1.702-1.7z"/><path d="M20.534 41.917c.314-.318.54-.62.504-.67-.036-.053-.307.13-.607.407-.3.278-.526.58-.504.67.023.093.295-.09.608-.407zM34.162 20.574c.037-.09-.398.31-.973.892s-.605.657-.067.166 1.002-.966 1.04-1.058zM36.838 12.944c.793-.77 1.45-1.42 1.47-1.455s-.603.566-1.39 1.342l-.436.43c-.786.777-.78.784.014.015l.342-.333zM19.956 40.213c.163-.15.187-.466.054-.708-.08-.146-.16-.293-.233-.44-.015-.03-.035-.053-.057-.074-.038-.036-.092.286-.088.716.004.43.162.657.324.507zM32.37 32.355c.02.035.247-.14.512-.39.265-.252.446-.47.404-.49-.042-.02-.272.156-.512.39-.24.236-.42.455-.403.49zM24.017 38.34c-.273.25-.477.458-.456.463.02.005.242-.198.494-.453s.236-.26-.037-.01zM35.27 17.585c.117-.12.307-.44.426-.713s-.02-.268-.315.014-.484.6-.428.714c.057.112.2.106.317-.015zM30.256 45.234c.328-.018.72-.286.894-.474.176-.188.322-.36.33-.386.003-.015.007-.03.005-.047-.027-.257-.05-.522-.066-.792-.03-.438-.054-.793-.077-.792-.022 0-.09.66-.517 1.304-.237.358-.565.685-.996.972-.024.015-.046.026-.07.038-.037.02.168.193.496.176zM20.492 50.185c.314-.314.306-.32-.01-.01-.316.314-.304.325.01.01zM18.448 48.647c-.39.357-.465.85-.154 1.082.31.23.874.104 1.242-.265.37-.37.422-.833.132-1.053-.29-.218-.83-.122-1.22.235z"/></g></svg>